# xmcd CD database file
#
# Track frame offsets:
#	150
#	10031
#	21460
#	33602
#	42170
#	52977
#	63372
#	86160
#	95537
#	109869
#	127572
#	146698
#	154693
#	168099
#	180347
#	191077
#	201370
#	210118
#	242076
#	275463
#	287955
#	307723
#
# Disc length: 4363 seconds
#
# Revision: 0
# Processed by: cddbd v1.5.2PL0 Copyright (c) Steve Scherf et al.
# Submitted via: CDex 1.70beta2
#
DISCID=26110916
DTITLE=Tony Bennett - 10.03.2003 live- Den Haag North Sea Jazz Festival
DYEAR=2003
DGENRE=Jazz
TTITLE0=Watch What Happens
TTITLE1=The Best Is Yet To Come
TTITLE2=If I Ruled The WOrld
TTITLE3=I Love A Piano
TTITLE4=All Of Me
TTITLE5=I Got Rythm
TTITLE6=Who Can I Turn To?
TTITLE7=Who Cares
TTITLE8=But Beautiful
TTITLE9=People
TTITLE10=Smile
TTITLE11=I Wanna Be Around
TTITLE12=I Left My Heart in San Francisco
TTITLE13=Steppin' Out
TTITLE14=Let's Face The Music And Dance
TTITLE15=They Can't Take That Away From Me
TTITLE16=Old Devil Moon
TTITLE17=In A Mellow Tone
TTITLE18=It Don't Mean A Thing (If It ain't Got That Swing)
TTITLE19=Fly Me To The Moon
TTITLE20=You Can Depend On Me
TTITLE21=How Do You Keep The Music Playing?
EXTD=YEAR: 2003
EXTT0=
EXTT1=
EXTT2=
EXTT3=
EXTT4=
EXTT5=
EXTT6=
EXTT7=
EXTT8=
EXTT9=
EXTT10=
EXTT11=
EXTT12=
EXTT13=
EXTT14=
EXTT15=
EXTT16=
EXTT17=
EXTT18=
EXTT19=
EXTT20=
EXTT21=
PLAYORDER=
